M48
; DRILL file {KiCad 5.1.10-88a1d61d58~88~ubuntu20.10.1} date Wed Jun 16 00:04:34 2021
; FORMAT={-:-/ absolute / inch / decimal}
; #@! TF.CreationDate,2021-06-16T00:04:34+02:00
; #@! TF.GenerationSoftware,Kicad,Pcbnew,5.1.10-88a1d61d58~88~ubuntu20.10.1
; #@! TF.FileFunction,Plated,1,2,PTH
FMAT,2
INCH
T1C0.0150
T2C0.0315
T3C0.0394
T4C0.0512
T5C0.1220
%
G90
G05
T1
X3.122Y-3.5433
X3.1417Y-3.1102
X3.2047Y-2.3701
X3.5394Y-2.5157
X3.5433Y-3.1142
X3.5709Y-3.752
X3.5866Y-4.937
T2
X1.2079Y-4.8075
X1.2079Y-4.9531
X1.2094Y-3.7571
X1.2094Y-3.9028
X1.211Y-2.7161
X1.211Y-2.8618
X1.2126Y-1.6807
X1.2126Y-1.8264
X1.3063Y-5.1035
X1.3063Y-5.2035
X1.3063Y-5.3035
X1.3079Y-4.0531
X1.3079Y-4.1531
X1.3079Y-4.2531
X1.3094Y-3.0122
X1.3094Y-3.1122
X1.3094Y-3.2122
X1.311Y-1.9768
X1.311Y-2.0768
X1.311Y-2.1768
X1.5079Y-4.8075
X1.5079Y-4.9531
X1.5094Y-3.7571
X1.5094Y-3.9028
X1.511Y-2.7161
X1.511Y-2.8618
X1.5126Y-1.6807
X1.5126Y-1.8264
X1.5661Y-5.1035
X1.5661Y-5.2035
X1.5661Y-5.3035
X1.5677Y-4.0531
X1.5677Y-4.1531
X1.5677Y-4.2531
X1.5693Y-3.0122
X1.5693Y-3.1122
X1.5693Y-3.2122
X1.5709Y-1.9768
X1.5709Y-2.0768
X1.5709Y-2.1768
X1.6205Y-4.8114
X1.6213Y-4.9531
X1.622Y-3.761
X1.6228Y-3.9028
X1.6236Y-2.7201
X1.6244Y-2.8618
X1.6252Y-1.6846
X1.626Y-1.8264
X1.8102Y-5.1035
X1.8102Y-5.2035
X1.8102Y-5.3035
X1.8118Y-4.0531
X1.8118Y-4.1531
X1.8118Y-4.2531
X1.8134Y-3.0122
X1.8134Y-3.1122
X1.8134Y-3.2122
X1.815Y-1.9768
X1.815Y-2.0768
X1.815Y-2.1768
X1.9205Y-4.8114
X1.9213Y-4.9531
X1.922Y-3.761
X1.9228Y-3.9028
X1.9236Y-2.7201
X1.9244Y-2.8618
X1.9252Y-1.6846
X1.926Y-1.8264
X2.0181Y-5.1185
X2.0181Y-5.276
X2.0197Y-4.0681
X2.0197Y-4.2256
X2.0213Y-3.0272
X2.0213Y-3.1846
X2.022Y-4.9492
X2.0228Y-1.9917
X2.0228Y-2.1492
X2.0228Y-4.8114
X2.0236Y-3.8988
X2.0244Y-3.761
X2.0252Y-2.8579
X2.026Y-2.7201
X2.0268Y-1.8224
X2.0276Y-1.6846
X2.2394Y-4.3547
X2.2394Y-4.6547
X2.2409Y-3.3043
X2.2409Y-3.6043
X2.2425Y-2.2634
X2.2425Y-2.5634
X2.2441Y-0.9173
X2.2441Y-1.0157
X2.2441Y-1.228
X2.2441Y-1.528
X2.3181Y-5.1185
X2.3181Y-5.276
X2.3197Y-4.0681
X2.3197Y-4.2256
X2.3213Y-3.0272
X2.3213Y-3.1846
X2.322Y-4.9492
X2.3228Y-1.9917
X2.3228Y-2.1492
X2.3228Y-4.8114
X2.3236Y-3.8988
X2.3244Y-3.761
X2.3252Y-2.8579
X2.326Y-2.7201
X2.3268Y-1.8224
X2.3276Y-1.6846
X2.3811Y-4.3539
X2.3811Y-4.6539
X2.3827Y-3.3035
X2.3827Y-3.6035
X2.3843Y-2.2626
X2.3843Y-2.5626
X2.3858Y-1.2272
X2.3858Y-1.5272
X2.4709Y-5.276
X2.4724Y-4.2256
X2.474Y-3.1846
X2.4756Y-2.1492
X2.4787Y-4.8114
X2.4787Y-5.1114
X2.4803Y-3.761
X2.4803Y-4.061
X2.4819Y-2.7201
X2.4819Y-3.0201
X2.4835Y-1.6846
X2.4835Y-1.9846
X2.5189Y-4.3547
X2.5189Y-4.6547
X2.5205Y-3.3043
X2.5205Y-3.6043
X2.522Y-2.2634
X2.522Y-2.5634
X2.5236Y-1.228
X2.5236Y-1.528
X2.5787Y-4.8114
X2.5787Y-5.1114
X2.5803Y-3.761
X2.5803Y-4.061
X2.5819Y-2.7201
X2.5819Y-3.0201
X2.5835Y-1.6846
X2.5835Y-1.9846
X2.6528Y-4.3705
X2.6543Y-3.3201
X2.6559Y-2.2791
X2.6575Y-1.2437
X2.6787Y-4.8114
X2.6787Y-5.1114
X2.6803Y-3.761
X2.6803Y-4.061
X2.6819Y-2.7201
X2.6819Y-3.0201
X2.6835Y-1.6846
X2.6835Y-1.9846
X2.685Y-0.9173
X2.685Y-1.0157
X2.7709Y-5.276
X2.7724Y-4.2256
X2.774Y-3.1846
X2.7756Y-2.1492
X2.7787Y-4.8114
X2.7787Y-5.1114
X2.7803Y-3.761
X2.7803Y-4.061
X2.7819Y-2.7201
X2.7819Y-3.0201
X2.7835Y-1.6846
X2.7835Y-1.9846
X2.9362Y-4.8744
X2.9362Y-5.0713
X2.9378Y-3.824
X2.9378Y-4.0209
X2.9394Y-2.7831
X2.9394Y-2.9799
X2.9409Y-1.7476
X2.9409Y-1.9445
X2.9528Y-4.3705
X2.9543Y-3.3201
X2.9559Y-2.2791
X2.9575Y-1.2437
X3.5764Y-0.8228
X3.5764Y-1.0
X3.7354Y-2.1535
X3.7394Y-4.2362
X3.7409Y-5.2795
X3.7425Y-3.1961
X3.752Y-1.4528
X3.752Y-1.6496
X3.7559Y-3.5354
X3.7559Y-3.7323
X3.7575Y-4.5787
X3.7575Y-4.7756
X3.7591Y-2.4953
X3.7591Y-2.6921
X3.9094Y-1.4126
X3.9094Y-1.7126
X3.9134Y-3.4953
X3.9134Y-3.7953
X3.915Y-4.5386
X3.915Y-4.8386
X3.9165Y-2.4551
X3.9165Y-2.7551
X3.9173Y-1.248
X3.9213Y-3.3307
X3.9228Y-4.374
X3.9244Y-2.2906
X3.9764Y-0.8228
X3.9764Y-1.0
X4.0094Y-1.4126
X4.0094Y-1.7126
X4.0134Y-3.4953
X4.0134Y-3.7953
X4.015Y-4.5386
X4.015Y-4.8386
X4.0165Y-2.4551
X4.0165Y-2.7551
X4.0354Y-2.1535
X4.0394Y-4.2362
X4.0409Y-5.2795
X4.0425Y-3.1961
X4.1094Y-1.4126
X4.1094Y-1.7126
X4.1134Y-3.4953
X4.1134Y-3.7953
X4.115Y-4.5386
X4.115Y-4.8386
X4.1165Y-2.4551
X4.1165Y-2.7551
X4.1693Y-1.8693
X4.1693Y-2.1693
X4.1732Y-3.952
X4.1732Y-4.252
X4.1748Y-4.9953
X4.1748Y-5.2953
X4.1764Y-2.9118
X4.1764Y-3.2118
X4.2094Y-1.4126
X4.2094Y-1.7126
X4.2134Y-3.4953
X4.2134Y-3.7953
X4.215Y-4.5386
X4.215Y-4.8386
X4.2165Y-2.4551
X4.2165Y-2.7551
X4.2173Y-1.248
X4.2213Y-3.3307
X4.2228Y-4.374
X4.2244Y-2.2906
X4.3071Y-1.8701
X4.3071Y-2.1701
X4.311Y-3.9528
X4.311Y-4.2528
X4.3126Y-4.9961
X4.3126Y-5.2961
X4.3142Y-2.9126
X4.3142Y-3.2126
X4.3654Y-1.7126
X4.3661Y-1.5748
X4.3693Y-3.7953
X4.3701Y-1.248
X4.3701Y-1.4055
X4.3701Y-3.6575
X4.3709Y-4.8386
X4.3717Y-4.7008
X4.3724Y-2.7551
X4.3732Y-2.6173
X4.374Y-3.3307
X4.374Y-3.4882
X4.3756Y-4.374
X4.3756Y-4.5315
X4.3772Y-2.2906
X4.3772Y-2.448
X4.4488Y-1.8693
X4.4488Y-2.1693
X4.4528Y-3.952
X4.4528Y-4.252
X4.4543Y-4.9953
X4.4543Y-5.2953
X4.4559Y-2.9118
X4.4559Y-3.2118
X4.6654Y-1.7126
X4.6661Y-1.5748
X4.6693Y-3.7953
X4.6701Y-1.248
X4.6701Y-1.4055
X4.6701Y-3.6575
X4.6709Y-4.8386
X4.6717Y-4.7008
X4.6724Y-2.7551
X4.6732Y-2.6173
X4.674Y-3.3307
X4.674Y-3.4882
X4.6756Y-4.374
X4.6756Y-4.5315
X4.6772Y-2.2906
X4.6772Y-2.448
X4.7669Y-1.5709
X4.7677Y-1.7126
X4.7709Y-3.6535
X4.7717Y-3.7953
X4.7724Y-4.6969
X4.7732Y-4.8386
X4.774Y-2.6134
X4.7748Y-2.7551
X4.878Y-1.2205
X4.878Y-1.3205
X4.878Y-1.4205
X4.8819Y-3.3031
X4.8819Y-3.4031
X4.8819Y-3.5031
X4.8835Y-4.3465
X4.8835Y-4.4465
X4.8835Y-4.5465
X4.885Y-2.263
X4.885Y-2.363
X4.885Y-2.463
X5.0669Y-1.5709
X5.0677Y-1.7126
X5.0709Y-3.6535
X5.0717Y-3.7953
X5.0724Y-4.6969
X5.0732Y-4.8386
X5.074Y-2.6134
X5.0748Y-2.7551
X5.122Y-1.2205
X5.122Y-1.3205
X5.122Y-1.4205
X5.126Y-3.3031
X5.126Y-3.4031
X5.126Y-3.5031
X5.1276Y-4.3465
X5.1276Y-4.4465
X5.1276Y-4.5465
X5.1291Y-2.263
X5.1291Y-2.363
X5.1291Y-2.463
X5.1803Y-1.5709
X5.1803Y-1.7165
X5.1843Y-3.6535
X5.1843Y-3.7992
X5.1858Y-4.6969
X5.1858Y-4.8425
X5.1874Y-2.6134
X5.1874Y-2.7591
X5.3819Y-1.2205
X5.3819Y-1.3205
X5.3819Y-1.4205
X5.3858Y-3.3031
X5.3858Y-3.4031
X5.3858Y-3.5031
X5.3874Y-4.3465
X5.3874Y-4.4465
X5.3874Y-4.5465
X5.389Y-2.263
X5.389Y-2.363
X5.389Y-2.463
X5.4803Y-1.5709
X5.4803Y-1.7165
X5.4843Y-3.6535
X5.4843Y-3.7992
X5.4858Y-4.6969
X5.4858Y-4.8425
X5.4874Y-2.6134
X5.4874Y-2.7591
T3
X3.2992Y-1.4055
X3.2992Y-1.5055
X3.2992Y-1.6055
X3.2992Y-1.7055
X3.2992Y-1.8055
X3.2992Y-1.9055
X3.2992Y-2.0055
X3.2992Y-2.1055
X3.2992Y-2.9134
X3.2992Y-3.0134
X3.2992Y-3.1134
X3.2992Y-3.2134
X3.2992Y-3.3134
X3.2992Y-3.4134
X3.2992Y-3.5134
X3.2992Y-3.6134
X3.2992Y-4.4252
X3.2992Y-4.5252
X3.2992Y-4.6252
X3.2992Y-4.7252
X3.2992Y-4.8252
X3.2992Y-4.9252
X3.2992Y-5.0252
X3.2992Y-5.1252
X3.3992Y-1.4055
X3.3992Y-1.5055
X3.3992Y-1.6055
X3.3992Y-1.7055
X3.3992Y-1.8055
X3.3992Y-1.9055
X3.3992Y-2.0055
X3.3992Y-2.1055
X3.3992Y-2.9134
X3.3992Y-3.0134
X3.3992Y-3.1134
X3.3992Y-3.2134
X3.3992Y-3.3134
X3.3992Y-3.4134
X3.3992Y-3.5134
X3.3992Y-3.6134
X3.3992Y-4.4252
X3.3992Y-4.5252
X3.3992Y-4.6252
X3.3992Y-4.7252
X3.3992Y-4.8252
X3.3992Y-4.9252
X3.3992Y-5.0252
X3.3992Y-5.1252
X4.4189Y-0.8976
X4.4189Y-0.9976
X4.5189Y-0.8976
X4.5189Y-0.9976
X4.6189Y-0.8976
X4.6189Y-0.9976
X4.7189Y-0.8976
X4.7189Y-0.9976
X4.8189Y-0.8976
X4.8189Y-0.9976
T4
X1.2866Y-4.4098
X1.2882Y-3.3594
X1.2898Y-2.3185
X1.2913Y-1.2831
X1.385Y-4.6067
X1.3866Y-3.5563
X1.3882Y-2.5154
X1.3898Y-1.4799
X1.4835Y-4.4098
X1.485Y-3.3594
X1.4866Y-2.3185
X1.4882Y-1.2831
X1.7906Y-4.4138
X1.7921Y-3.3634
X1.7937Y-2.3224
X1.7953Y-1.287
X1.889Y-4.6106
X1.8906Y-3.5602
X1.8921Y-2.5193
X1.8937Y-1.4839
X1.9874Y-4.4138
X1.989Y-3.3634
X1.9906Y-2.3224
X1.9921Y-1.287
X4.7008Y-2.1102
X4.7047Y-4.1929
X4.7063Y-5.2362
X4.7079Y-3.1528
X4.7992Y-1.9134
X4.8031Y-3.9961
X4.8047Y-5.0394
X4.8063Y-2.9559
X4.8976Y-2.1102
X4.9016Y-4.1929
X4.9031Y-5.2362
X4.9047Y-3.1528
X5.2047Y-2.1142
X5.2087Y-4.1969
X5.2102Y-5.2402
X5.2118Y-3.1567
X5.3031Y-1.9173
X5.3071Y-4.0
X5.3087Y-5.0433
X5.3102Y-2.9598
X5.4016Y-2.1142
X5.4055Y-4.1969
X5.4071Y-5.2402
X5.4087Y-3.1567
T5
X1.2008Y-0.7677
X1.2008Y-5.4134
X3.3465Y-2.5
X3.3465Y-4.0157
X5.4921Y-0.7677
X5.4921Y-5.4134
T0
M30
