%TF.GenerationSoftware,KiCad,Pcbnew,5.1.10-88a1d61d58~88~ubuntu20.10.1*%
%TF.CreationDate,2021-06-16T00:04:35+02:00*%
%TF.ProjectId,vca-8,7663612d-382e-46b6-9963-61645f706362,v1.0.0*%
%TF.SameCoordinates,Original*%
%TF.FileFunction,Soldermask,Top*%
%TF.FilePolarity,Negative*%
%FSLAX46Y46*%
G04 Gerber Fmt 4.6, Leading zero omitted, Abs format (unit mm)*
G04 Created by KiCad (PCBNEW 5.1.10-88a1d61d58~88~ubuntu20.10.1) date 2021-06-16 00:04:35*
%MOMM*%
%LPD*%
G01*
G04 APERTURE LIST*
%ADD10O,1.600000X2.400000*%
%ADD11R,1.600000X2.400000*%
%ADD12O,1.600000X1.600000*%
%ADD13C,1.600000*%
%ADD14R,1.500000X1.500000*%
%ADD15C,1.500000*%
%ADD16C,2.340000*%
%ADD17C,1.700000*%
%ADD18R,1.600000X1.600000*%
G04 APERTURE END LIST*
D10*
%TO.C,U8*%
X70580000Y-129830000D03*
X62960000Y-122210000D03*
X68040000Y-129830000D03*
X65500000Y-122210000D03*
X65500000Y-129830000D03*
X68040000Y-122210000D03*
X62960000Y-129830000D03*
D11*
X70580000Y-122210000D03*
%TD*%
D10*
%TO.C,U7*%
X99440000Y-115280000D03*
X107060000Y-122900000D03*
X101980000Y-115280000D03*
X104520000Y-122900000D03*
X104520000Y-115280000D03*
X101980000Y-122900000D03*
X107060000Y-115280000D03*
D11*
X99440000Y-122900000D03*
%TD*%
D10*
%TO.C,U6*%
X70620000Y-103150000D03*
X63000000Y-95530000D03*
X68080000Y-103150000D03*
X65540000Y-95530000D03*
X65540000Y-103150000D03*
X68080000Y-95530000D03*
X63000000Y-103150000D03*
D11*
X70620000Y-95530000D03*
%TD*%
D10*
%TO.C,U5*%
X99400000Y-88780000D03*
X107020000Y-96400000D03*
X101940000Y-88780000D03*
X104480000Y-96400000D03*
X104480000Y-88780000D03*
X101940000Y-96400000D03*
X107020000Y-88780000D03*
D11*
X99400000Y-96400000D03*
%TD*%
D10*
%TO.C,U4*%
X70660000Y-76710000D03*
X63040000Y-69090000D03*
X68120000Y-76710000D03*
X65580000Y-69090000D03*
X65580000Y-76710000D03*
X68120000Y-69090000D03*
X63040000Y-76710000D03*
D11*
X70660000Y-69090000D03*
%TD*%
D10*
%TO.C,U2*%
X99480000Y-62360000D03*
X107100000Y-69980000D03*
X102020000Y-62360000D03*
X104560000Y-69980000D03*
X104560000Y-62360000D03*
X102020000Y-69980000D03*
X107100000Y-62360000D03*
D11*
X99480000Y-69980000D03*
%TD*%
D10*
%TO.C,U1*%
X70700000Y-50410000D03*
X63080000Y-42790000D03*
X68160000Y-50410000D03*
X65620000Y-42790000D03*
X65620000Y-50410000D03*
X68160000Y-42790000D03*
X63080000Y-50410000D03*
D11*
X70700000Y-42790000D03*
%TD*%
D12*
%TO.C,R120*%
X62760000Y-134010000D03*
D13*
X70380000Y-134010000D03*
%TD*%
D12*
%TO.C,R119*%
X51260000Y-134010000D03*
D13*
X58880000Y-134010000D03*
%TD*%
D12*
%TO.C,R118*%
X51260000Y-130010000D03*
D13*
X58880000Y-130010000D03*
%TD*%
D12*
%TO.C,R117*%
X51360000Y-125710000D03*
D13*
X58980000Y-125710000D03*
%TD*%
D12*
%TO.C,R116*%
X38300000Y-122110000D03*
D13*
X30680000Y-122110000D03*
%TD*%
D12*
%TO.C,R115*%
X59000000Y-122210000D03*
D13*
X51380000Y-122210000D03*
%TD*%
D12*
%TO.C,R114*%
X48800000Y-125810000D03*
D13*
X41180000Y-125810000D03*
%TD*%
D12*
%TO.C,R113*%
X38300000Y-125810000D03*
D13*
X30680000Y-125810000D03*
%TD*%
D12*
%TO.C,R112*%
X41160000Y-122210000D03*
D13*
X48780000Y-122210000D03*
%TD*%
D12*
%TO.C,R111*%
X60480000Y-118210000D03*
D13*
X60480000Y-110590000D03*
%TD*%
D12*
%TO.C,R110*%
X63980000Y-118230000D03*
D13*
X63980000Y-110610000D03*
%TD*%
D12*
%TO.C,R109*%
X56880000Y-118230000D03*
D13*
X56880000Y-110610000D03*
%TD*%
D12*
%TO.C,R108*%
X75000000Y-111010000D03*
D13*
X67380000Y-111010000D03*
%TD*%
D12*
%TO.C,R105*%
X107260000Y-111100000D03*
D13*
X99640000Y-111100000D03*
%TD*%
D12*
%TO.C,R104*%
X118760000Y-111100000D03*
D13*
X111140000Y-111100000D03*
%TD*%
D12*
%TO.C,R103*%
X118760000Y-115100000D03*
D13*
X111140000Y-115100000D03*
%TD*%
D12*
%TO.C,R102*%
X118660000Y-119400000D03*
D13*
X111040000Y-119400000D03*
%TD*%
D12*
%TO.C,R101*%
X131720000Y-123000000D03*
D13*
X139340000Y-123000000D03*
%TD*%
D12*
%TO.C,R100*%
X111020000Y-122900000D03*
D13*
X118640000Y-122900000D03*
%TD*%
D12*
%TO.C,R99*%
X121220000Y-119300000D03*
D13*
X128840000Y-119300000D03*
%TD*%
D12*
%TO.C,R98*%
X131720000Y-119300000D03*
D13*
X139340000Y-119300000D03*
%TD*%
D12*
%TO.C,R97*%
X128860000Y-122900000D03*
D13*
X121240000Y-122900000D03*
%TD*%
D12*
%TO.C,R96*%
X109540000Y-126900000D03*
D13*
X109540000Y-134520000D03*
%TD*%
D12*
%TO.C,R95*%
X106040000Y-126880000D03*
D13*
X106040000Y-134500000D03*
%TD*%
D12*
%TO.C,R94*%
X113140000Y-126880000D03*
D13*
X113140000Y-134500000D03*
%TD*%
D12*
%TO.C,R93*%
X95020000Y-134100000D03*
D13*
X102640000Y-134100000D03*
%TD*%
D12*
%TO.C,R90*%
X62800000Y-107330000D03*
D13*
X70420000Y-107330000D03*
%TD*%
D12*
%TO.C,R89*%
X51300000Y-107330000D03*
D13*
X58920000Y-107330000D03*
%TD*%
D12*
%TO.C,R88*%
X51300000Y-103330000D03*
D13*
X58920000Y-103330000D03*
%TD*%
D12*
%TO.C,R87*%
X51400000Y-99030000D03*
D13*
X59020000Y-99030000D03*
%TD*%
D12*
%TO.C,R86*%
X38340000Y-95430000D03*
D13*
X30720000Y-95430000D03*
%TD*%
D12*
%TO.C,R85*%
X59040000Y-95530000D03*
D13*
X51420000Y-95530000D03*
%TD*%
D12*
%TO.C,R84*%
X48840000Y-99130000D03*
D13*
X41220000Y-99130000D03*
%TD*%
D12*
%TO.C,R83*%
X38340000Y-99130000D03*
D13*
X30720000Y-99130000D03*
%TD*%
D12*
%TO.C,R82*%
X41200000Y-95530000D03*
D13*
X48820000Y-95530000D03*
%TD*%
D12*
%TO.C,R81*%
X60520000Y-91530000D03*
D13*
X60520000Y-83910000D03*
%TD*%
D12*
%TO.C,R80*%
X64020000Y-91550000D03*
D13*
X64020000Y-83930000D03*
%TD*%
D12*
%TO.C,R79*%
X56920000Y-91550000D03*
D13*
X56920000Y-83930000D03*
%TD*%
D12*
%TO.C,R78*%
X75040000Y-84330000D03*
D13*
X67420000Y-84330000D03*
%TD*%
D12*
%TO.C,R75*%
X107220000Y-84600000D03*
D13*
X99600000Y-84600000D03*
%TD*%
D12*
%TO.C,R74*%
X118720000Y-84600000D03*
D13*
X111100000Y-84600000D03*
%TD*%
D12*
%TO.C,R73*%
X118720000Y-88600000D03*
D13*
X111100000Y-88600000D03*
%TD*%
D12*
%TO.C,R72*%
X118620000Y-92900000D03*
D13*
X111000000Y-92900000D03*
%TD*%
D12*
%TO.C,R71*%
X131680000Y-96500000D03*
D13*
X139300000Y-96500000D03*
%TD*%
D12*
%TO.C,R70*%
X110980000Y-96400000D03*
D13*
X118600000Y-96400000D03*
%TD*%
D12*
%TO.C,R69*%
X121180000Y-92800000D03*
D13*
X128800000Y-92800000D03*
%TD*%
D12*
%TO.C,R68*%
X131680000Y-92800000D03*
D13*
X139300000Y-92800000D03*
%TD*%
D12*
%TO.C,R67*%
X128820000Y-96400000D03*
D13*
X121200000Y-96400000D03*
%TD*%
D12*
%TO.C,R66*%
X109500000Y-100400000D03*
D13*
X109500000Y-108020000D03*
%TD*%
D12*
%TO.C,R65*%
X106000000Y-100380000D03*
D13*
X106000000Y-108000000D03*
%TD*%
D12*
%TO.C,R64*%
X113100000Y-100380000D03*
D13*
X113100000Y-108000000D03*
%TD*%
D12*
%TO.C,R63*%
X94980000Y-107600000D03*
D13*
X102600000Y-107600000D03*
%TD*%
D12*
%TO.C,R60*%
X62840000Y-80890000D03*
D13*
X70460000Y-80890000D03*
%TD*%
D12*
%TO.C,R59*%
X51340000Y-80890000D03*
D13*
X58960000Y-80890000D03*
%TD*%
D12*
%TO.C,R58*%
X51340000Y-76890000D03*
D13*
X58960000Y-76890000D03*
%TD*%
D12*
%TO.C,R57*%
X51440000Y-72590000D03*
D13*
X59060000Y-72590000D03*
%TD*%
D12*
%TO.C,R56*%
X38380000Y-68990000D03*
D13*
X30760000Y-68990000D03*
%TD*%
D12*
%TO.C,R55*%
X59080000Y-69090000D03*
D13*
X51460000Y-69090000D03*
%TD*%
D12*
%TO.C,R54*%
X48880000Y-72690000D03*
D13*
X41260000Y-72690000D03*
%TD*%
D12*
%TO.C,R53*%
X38380000Y-72690000D03*
D13*
X30760000Y-72690000D03*
%TD*%
D12*
%TO.C,R52*%
X41240000Y-69090000D03*
D13*
X48860000Y-69090000D03*
%TD*%
D12*
%TO.C,R51*%
X60560000Y-65090000D03*
D13*
X60560000Y-57470000D03*
%TD*%
D12*
%TO.C,R50*%
X64060000Y-65110000D03*
D13*
X64060000Y-57490000D03*
%TD*%
D12*
%TO.C,R49*%
X56960000Y-65110000D03*
D13*
X56960000Y-57490000D03*
%TD*%
D12*
%TO.C,R48*%
X75080000Y-57890000D03*
D13*
X67460000Y-57890000D03*
%TD*%
D12*
%TO.C,R45*%
X107300000Y-58180000D03*
D13*
X99680000Y-58180000D03*
%TD*%
D12*
%TO.C,R44*%
X118800000Y-58180000D03*
D13*
X111180000Y-58180000D03*
%TD*%
D12*
%TO.C,R43*%
X118800000Y-62180000D03*
D13*
X111180000Y-62180000D03*
%TD*%
D12*
%TO.C,R42*%
X118700000Y-66480000D03*
D13*
X111080000Y-66480000D03*
%TD*%
D12*
%TO.C,R41*%
X131760000Y-70080000D03*
D13*
X139380000Y-70080000D03*
%TD*%
D12*
%TO.C,R40*%
X111060000Y-69980000D03*
D13*
X118680000Y-69980000D03*
%TD*%
D12*
%TO.C,R39*%
X121260000Y-66380000D03*
D13*
X128880000Y-66380000D03*
%TD*%
D12*
%TO.C,R38*%
X131760000Y-66380000D03*
D13*
X139380000Y-66380000D03*
%TD*%
D12*
%TO.C,R37*%
X128900000Y-69980000D03*
D13*
X121280000Y-69980000D03*
%TD*%
D12*
%TO.C,R36*%
X109580000Y-73980000D03*
D13*
X109580000Y-81600000D03*
%TD*%
D12*
%TO.C,R35*%
X106080000Y-73960000D03*
D13*
X106080000Y-81580000D03*
%TD*%
D12*
%TO.C,R34*%
X113180000Y-73960000D03*
D13*
X113180000Y-81580000D03*
%TD*%
D12*
%TO.C,R33*%
X95060000Y-81180000D03*
D13*
X102680000Y-81180000D03*
%TD*%
D12*
%TO.C,R30*%
X62880000Y-54590000D03*
D13*
X70500000Y-54590000D03*
%TD*%
D12*
%TO.C,R29*%
X51380000Y-54590000D03*
D13*
X59000000Y-54590000D03*
%TD*%
D12*
%TO.C,R28*%
X51380000Y-50590000D03*
D13*
X59000000Y-50590000D03*
%TD*%
D12*
%TO.C,R27*%
X51480000Y-46290000D03*
D13*
X59100000Y-46290000D03*
%TD*%
D12*
%TO.C,R26*%
X38420000Y-42690000D03*
D13*
X30800000Y-42690000D03*
%TD*%
D12*
%TO.C,R10*%
X59120000Y-42790000D03*
D13*
X51500000Y-42790000D03*
%TD*%
D12*
%TO.C,R9*%
X48920000Y-46390000D03*
D13*
X41300000Y-46390000D03*
%TD*%
D12*
%TO.C,R8*%
X38420000Y-46390000D03*
D13*
X30800000Y-46390000D03*
%TD*%
D12*
%TO.C,R7*%
X41280000Y-42790000D03*
D13*
X48900000Y-42790000D03*
%TD*%
D12*
%TO.C,R6*%
X60600000Y-38790000D03*
D13*
X60600000Y-31170000D03*
%TD*%
D12*
%TO.C,R5*%
X64100000Y-38810000D03*
D13*
X64100000Y-31190000D03*
%TD*%
D12*
%TO.C,R4*%
X57000000Y-38810000D03*
D13*
X57000000Y-31190000D03*
%TD*%
D12*
%TO.C,R3*%
X75120000Y-31590000D03*
D13*
X67500000Y-31590000D03*
%TD*%
D14*
%TO.C,Q24*%
X39780000Y-134710000D03*
D15*
X39780000Y-129630000D03*
X39780000Y-132170000D03*
%TD*%
D14*
%TO.C,Q23*%
X33180000Y-134710000D03*
D15*
X33180000Y-129630000D03*
X33180000Y-132170000D03*
%TD*%
D14*
%TO.C,Q22*%
X45980000Y-134710000D03*
D15*
X45980000Y-129630000D03*
X45980000Y-132170000D03*
%TD*%
D14*
%TO.C,Q21*%
X130240000Y-110400000D03*
D15*
X130240000Y-115480000D03*
X130240000Y-112940000D03*
%TD*%
D14*
%TO.C,Q20*%
X136840000Y-110400000D03*
D15*
X136840000Y-115480000D03*
X136840000Y-112940000D03*
%TD*%
D14*
%TO.C,Q19*%
X124040000Y-110400000D03*
D15*
X124040000Y-115480000D03*
X124040000Y-112940000D03*
%TD*%
D14*
%TO.C,Q18*%
X39820000Y-108030000D03*
D15*
X39820000Y-102950000D03*
X39820000Y-105490000D03*
%TD*%
D14*
%TO.C,Q17*%
X33220000Y-108030000D03*
D15*
X33220000Y-102950000D03*
X33220000Y-105490000D03*
%TD*%
D14*
%TO.C,Q16*%
X46020000Y-108030000D03*
D15*
X46020000Y-102950000D03*
X46020000Y-105490000D03*
%TD*%
D14*
%TO.C,Q15*%
X130200000Y-83900000D03*
D15*
X130200000Y-88980000D03*
X130200000Y-86440000D03*
%TD*%
D14*
%TO.C,Q14*%
X136800000Y-83900000D03*
D15*
X136800000Y-88980000D03*
X136800000Y-86440000D03*
%TD*%
D14*
%TO.C,Q13*%
X124000000Y-83900000D03*
D15*
X124000000Y-88980000D03*
X124000000Y-86440000D03*
%TD*%
D14*
%TO.C,Q12*%
X39860000Y-81590000D03*
D15*
X39860000Y-76510000D03*
X39860000Y-79050000D03*
%TD*%
D14*
%TO.C,Q11*%
X33260000Y-81590000D03*
D15*
X33260000Y-76510000D03*
X33260000Y-79050000D03*
%TD*%
D14*
%TO.C,Q10*%
X46060000Y-81590000D03*
D15*
X46060000Y-76510000D03*
X46060000Y-79050000D03*
%TD*%
D14*
%TO.C,Q9*%
X130280000Y-57480000D03*
D15*
X130280000Y-62560000D03*
X130280000Y-60020000D03*
%TD*%
D14*
%TO.C,Q8*%
X136880000Y-57480000D03*
D15*
X136880000Y-62560000D03*
X136880000Y-60020000D03*
%TD*%
D14*
%TO.C,Q7*%
X124080000Y-57480000D03*
D15*
X124080000Y-62560000D03*
X124080000Y-60020000D03*
%TD*%
D14*
%TO.C,Q6*%
X39900000Y-55290000D03*
D15*
X39900000Y-50210000D03*
X39900000Y-52750000D03*
%TD*%
D14*
%TO.C,Q5*%
X33300000Y-55290000D03*
D15*
X33300000Y-50210000D03*
X33300000Y-52750000D03*
%TD*%
D14*
%TO.C,Q4*%
X46100000Y-55290000D03*
D15*
X46100000Y-50210000D03*
X46100000Y-52750000D03*
%TD*%
D16*
%TO.C,OFFSET8*%
X37680000Y-112010000D03*
X35180000Y-117010000D03*
X32680000Y-112010000D03*
%TD*%
%TO.C,OFFSET7*%
X132340000Y-133100000D03*
X134840000Y-128100000D03*
X137340000Y-133100000D03*
%TD*%
%TO.C,OFFSET6*%
X37720000Y-85330000D03*
X35220000Y-90330000D03*
X32720000Y-85330000D03*
%TD*%
%TO.C,OFFSET5*%
X132300000Y-106600000D03*
X134800000Y-101600000D03*
X137300000Y-106600000D03*
%TD*%
%TO.C,OFFSET4*%
X37760000Y-58890000D03*
X35260000Y-63890000D03*
X32760000Y-58890000D03*
%TD*%
%TO.C,OFFSET3*%
X132380000Y-80180000D03*
X134880000Y-75180000D03*
X137380000Y-80180000D03*
%TD*%
%TO.C,OFFSET2*%
X37800000Y-32590000D03*
X35300000Y-37590000D03*
X32800000Y-32590000D03*
%TD*%
%TO.C,LEVEL8*%
X50480000Y-112110000D03*
X47980000Y-117110000D03*
X45480000Y-112110000D03*
%TD*%
%TO.C,LEVEL7*%
X119540000Y-133000000D03*
X122040000Y-128000000D03*
X124540000Y-133000000D03*
%TD*%
%TO.C,LEVEL6*%
X50520000Y-85430000D03*
X48020000Y-90430000D03*
X45520000Y-85430000D03*
%TD*%
%TO.C,LEVEL5*%
X119500000Y-106500000D03*
X122000000Y-101500000D03*
X124500000Y-106500000D03*
%TD*%
%TO.C,LEVEL4*%
X50560000Y-58990000D03*
X48060000Y-63990000D03*
X45560000Y-58990000D03*
%TD*%
%TO.C,LEVEL3*%
X119580000Y-80080000D03*
X122080000Y-75080000D03*
X124580000Y-80080000D03*
%TD*%
%TO.C,LEVEL2*%
X50600000Y-32690000D03*
X48100000Y-37690000D03*
X45600000Y-32690000D03*
%TD*%
D17*
%TO.C,J2*%
X86340000Y-91780000D03*
X86340000Y-89240000D03*
X86340000Y-86700000D03*
X86340000Y-84160000D03*
X86340000Y-81620000D03*
X86340000Y-79080000D03*
X86340000Y-76540000D03*
X86340000Y-74000000D03*
X83800000Y-91780000D03*
X83800000Y-89240000D03*
X83800000Y-86700000D03*
X83800000Y-84160000D03*
X83800000Y-81620000D03*
X83800000Y-79080000D03*
X83800000Y-76540000D03*
G36*
G01*
X82950000Y-74600000D02*
X82950000Y-73400000D01*
G75*
G02*
X83200000Y-73150000I250000J0D01*
G01*
X84400000Y-73150000D01*
G75*
G02*
X84650000Y-73400000I0J-250000D01*
G01*
X84650000Y-74600000D01*
G75*
G02*
X84400000Y-74850000I-250000J0D01*
G01*
X83200000Y-74850000D01*
G75*
G02*
X82950000Y-74600000I0J250000D01*
G01*
G37*
%TD*%
%TO.C,J1*%
X86340000Y-53480000D03*
X86340000Y-50940000D03*
X86340000Y-48400000D03*
X86340000Y-45860000D03*
X86340000Y-43320000D03*
X86340000Y-40780000D03*
X86340000Y-38240000D03*
X86340000Y-35700000D03*
X83800000Y-53480000D03*
X83800000Y-50940000D03*
X83800000Y-48400000D03*
X83800000Y-45860000D03*
X83800000Y-43320000D03*
X83800000Y-40780000D03*
X83800000Y-38240000D03*
G36*
G01*
X82950000Y-36300000D02*
X82950000Y-35100000D01*
G75*
G02*
X83200000Y-34850000I250000J0D01*
G01*
X84400000Y-34850000D01*
G75*
G02*
X84650000Y-35100000I0J-250000D01*
G01*
X84650000Y-36300000D01*
G75*
G02*
X84400000Y-36550000I-250000J0D01*
G01*
X83200000Y-36550000D01*
G75*
G02*
X82950000Y-36300000I0J250000D01*
G01*
G37*
%TD*%
D13*
%TO.C,C7*%
X74580000Y-128810000D03*
X74580000Y-123810000D03*
%TD*%
%TO.C,C6*%
X95440000Y-116300000D03*
X95440000Y-121300000D03*
%TD*%
%TO.C,C5*%
X74620000Y-102130000D03*
X74620000Y-97130000D03*
%TD*%
%TO.C,C4*%
X95400000Y-89800000D03*
X95400000Y-94800000D03*
%TD*%
%TO.C,C3*%
X74660000Y-75690000D03*
X74660000Y-70690000D03*
%TD*%
%TO.C,C2*%
X95480000Y-63380000D03*
X95480000Y-68380000D03*
%TD*%
%TO.C,C1*%
X74700000Y-49390000D03*
X74700000Y-44390000D03*
%TD*%
D14*
%TO.C,Q2*%
X130100000Y-31000000D03*
D15*
X130100000Y-36080000D03*
X130100000Y-33540000D03*
%TD*%
D14*
%TO.C,Q1*%
X123900000Y-31000000D03*
D15*
X123900000Y-36080000D03*
X123900000Y-33540000D03*
%TD*%
D17*
%TO.C,J3*%
X86340000Y-130180000D03*
X86340000Y-127640000D03*
X86340000Y-125100000D03*
X86340000Y-122560000D03*
X86340000Y-120020000D03*
X86340000Y-117480000D03*
X86340000Y-114940000D03*
X86340000Y-112400000D03*
X83800000Y-130180000D03*
X83800000Y-127640000D03*
X83800000Y-125100000D03*
X83800000Y-122560000D03*
X83800000Y-120020000D03*
X83800000Y-117480000D03*
X83800000Y-114940000D03*
G36*
G01*
X82950000Y-113000000D02*
X82950000Y-111800000D01*
G75*
G02*
X83200000Y-111550000I250000J0D01*
G01*
X84400000Y-111550000D01*
G75*
G02*
X84650000Y-111800000I0J-250000D01*
G01*
X84650000Y-113000000D01*
G75*
G02*
X84400000Y-113250000I-250000J0D01*
G01*
X83200000Y-113250000D01*
G75*
G02*
X82950000Y-113000000I0J250000D01*
G01*
G37*
%TD*%
D12*
%TO.C,FB2*%
X90840000Y-25400000D03*
D13*
X101000000Y-25400000D03*
%TD*%
D12*
%TO.C,FB1*%
X90840000Y-20900000D03*
D13*
X101000000Y-20900000D03*
%TD*%
%TO.C,C10*%
X68200000Y-23300000D03*
D18*
X68200000Y-25800000D03*
%TD*%
D13*
%TO.C,C9*%
X57000000Y-25800000D03*
D18*
X57000000Y-23300000D03*
%TD*%
D14*
%TO.C,Q3*%
X136700000Y-31000000D03*
D15*
X136700000Y-36080000D03*
X136700000Y-33540000D03*
%TD*%
D10*
%TO.C,U3*%
X99300000Y-35880000D03*
X106920000Y-43500000D03*
X101840000Y-35880000D03*
X104380000Y-43500000D03*
X104380000Y-35880000D03*
X101840000Y-43500000D03*
X106920000Y-35880000D03*
D11*
X99300000Y-43500000D03*
%TD*%
D12*
%TO.C,R25*%
X107120000Y-31700000D03*
D13*
X99500000Y-31700000D03*
%TD*%
D12*
%TO.C,R24*%
X118620000Y-31700000D03*
D13*
X111000000Y-31700000D03*
%TD*%
D12*
%TO.C,R23*%
X118620000Y-35700000D03*
D13*
X111000000Y-35700000D03*
%TD*%
D12*
%TO.C,R22*%
X118520000Y-40000000D03*
D13*
X110900000Y-40000000D03*
%TD*%
D12*
%TO.C,R21*%
X131580000Y-43600000D03*
D13*
X139200000Y-43600000D03*
%TD*%
D12*
%TO.C,R20*%
X110880000Y-43500000D03*
D13*
X118500000Y-43500000D03*
%TD*%
D12*
%TO.C,R19*%
X121080000Y-39900000D03*
D13*
X128700000Y-39900000D03*
%TD*%
D12*
%TO.C,R18*%
X131580000Y-39900000D03*
D13*
X139200000Y-39900000D03*
%TD*%
D12*
%TO.C,R17*%
X128720000Y-43500000D03*
D13*
X121100000Y-43500000D03*
%TD*%
D12*
%TO.C,R16*%
X109400000Y-47500000D03*
D13*
X109400000Y-55120000D03*
%TD*%
D12*
%TO.C,R15*%
X105900000Y-47480000D03*
D13*
X105900000Y-55100000D03*
%TD*%
D12*
%TO.C,R14*%
X113000000Y-47480000D03*
D13*
X113000000Y-55100000D03*
%TD*%
D12*
%TO.C,R13*%
X94880000Y-54700000D03*
D13*
X102500000Y-54700000D03*
%TD*%
D17*
%TO.C,POWER1*%
X112240000Y-25340000D03*
X114780000Y-25340000D03*
X117320000Y-25340000D03*
X119860000Y-25340000D03*
X122400000Y-25340000D03*
X112240000Y-22800000D03*
X114780000Y-22800000D03*
X117320000Y-22800000D03*
X119860000Y-22800000D03*
G36*
G01*
X121800000Y-21950000D02*
X123000000Y-21950000D01*
G75*
G02*
X123250000Y-22200000I0J-250000D01*
G01*
X123250000Y-23400000D01*
G75*
G02*
X123000000Y-23650000I-250000J0D01*
G01*
X121800000Y-23650000D01*
G75*
G02*
X121550000Y-23400000I0J250000D01*
G01*
X121550000Y-22200000D01*
G75*
G02*
X121800000Y-21950000I250000J0D01*
G01*
G37*
%TD*%
D16*
%TO.C,OFFSET1*%
X132200000Y-53700000D03*
X134700000Y-48700000D03*
X137200000Y-53700000D03*
%TD*%
%TO.C,LEVEL1*%
X119400000Y-53600000D03*
X121900000Y-48600000D03*
X124400000Y-53600000D03*
%TD*%
D13*
%TO.C,C8*%
X95300000Y-36900000D03*
X95300000Y-41900000D03*
%TD*%
M02*
